<svg width="21" height="21" viewBox="0 0 21 21" fill="none" xmlns="http://www.w3.org/2000/svg">
<path d="M16.4179 8.52649H4.58327C4.34377 8.52675 4.10743 8.58115 3.89191 8.68561C3.67639 8.79007 3.48726 8.94189 3.33867 9.12973C3.1907 9.31704 3.08731 9.53557 3.03631 9.76877C2.98532 10.002 2.98807 10.2437 3.04435 10.4757L4.31327 15.6714C4.497 16.3408 4.89589 16.9311 5.44841 17.3514C6.00139 17.7722 6.67842 18 7.3749 18H13.6247C14.3211 18 14.9982 17.7722 15.5511 17.3514C16.1037 16.9311 16.5026 16.3408 16.6863 15.6714L17.9552 10.4765C18.0406 10.1263 18.0031 9.75732 17.8491 9.43143C17.695 9.10553 17.4336 8.84245 17.1087 8.68622C16.8926 8.58243 16.6561 8.52788 16.4163 8.52649M7.32788 11.6838V14.8419M10.5006 11.6838V14.8419M13.6733 11.6838V14.8419M16.053 8.52649C16.0528 7.80004 15.9089 7.08081 15.6298 6.41012C15.3507 5.73944 14.9418 5.13053 14.4265 4.61838C13.3834 3.58095 11.9718 2.99903 10.5006 3C9.02941 2.99903 7.61776 3.58095 6.57463 4.61838C6.05957 5.13059 5.65081 5.73953 5.37182 6.41022C5.09283 7.0809 4.94912 7.80009 4.94895 8.52649" stroke="black" stroke-linecap="round" stroke-linejoin="round"/>
</svg>
