<svg width="21" height="21" viewBox="0 0 21 21" fill="none" xmlns="http://www.w3.org/2000/svg">
<path d="M3 16.125C3 15.1304 3.39509 14.1766 4.09835 13.4733C4.80161 12.7701 5.75544 12.375 6.75 12.375H14.25C15.2446 12.375 16.1984 12.7701 16.9016 13.4733C17.6049 14.1766 18 15.1304 18 16.125C18 16.6223 17.8025 17.0992 17.4508 17.4508C17.0992 17.8025 16.6223 18 16.125 18H4.875C4.37772 18 3.90081 17.8025 3.54917 17.4508C3.19754 17.0992 3 16.6223 3 16.125Z" stroke="black" stroke-linejoin="round"/>
<path d="M10.5 8.625C12.0533 8.625 13.3125 7.3658 13.3125 5.8125C13.3125 4.2592 12.0533 3 10.5 3C8.9467 3 7.6875 4.2592 7.6875 5.8125C7.6875 7.3658 8.9467 8.625 10.5 8.625Z" stroke="black"/>
</svg>
