<svg width="21" height="21" viewBox="0 0 21 21" fill="none" xmlns="http://www.w3.org/2000/svg">
<path d="M18 18L14.3809 14.3809M14.3809 14.3809C14.9999 13.7618 15.491 13.0269 15.826 12.218C16.1611 11.4092 16.3335 10.5423 16.3335 9.66676C16.3335 8.79127 16.1611 7.92435 15.826 7.1155C15.491 6.30665 14.9999 5.57172 14.3809 4.95265C13.7618 4.33358 13.0269 3.84251 12.218 3.50748C11.4092 3.17244 10.5423 3 9.66676 3C8.79127 3 7.92435 3.17244 7.1155 3.50748C6.30665 3.84251 5.57172 4.33358 4.95265 4.95265C3.70239 6.20291 3 7.89863 3 9.66676C3 11.4349 3.70239 13.1306 4.95265 14.3809C6.20291 15.6311 7.89863 16.3335 9.66676 16.3335C11.4349 16.3335 13.1306 15.6311 14.3809 14.3809Z" stroke="black" stroke-linecap="round" stroke-linejoin="round"/>
</svg>
