<svg width="21" height="21" viewBox="0 0 21 21" fill="none" xmlns="http://www.w3.org/2000/svg">
<path d="M21 3.93743V17.0624C21 17.8073 20.4323 18.3749 19.6875 18.3749H18.375V6.46334L10.5 12.1202L2.625 6.46334V18.3749H1.3125C0.567656 18.3749 0 17.8073 0 17.0624V3.93743C0 3.56468 0.140438 3.23656 0.376031 3.00425C0.498665 2.88139 0.644785 2.78449 0.805676 2.71932C0.966568 2.65415 1.13894 2.62205 1.3125 2.62493H1.75022L10.5 8.9689L19.2498 2.62493H19.6875C20.0603 2.62493 20.3884 2.76537 20.624 3.00425C20.8596 3.23656 21 3.56468 21 3.93743Z" fill="black"/>
</svg>
